<svg width="83" height="81" viewBox="0 0 83 81" fill="none" xmlns="http://www.w3.org/2000/svg">
<path d="M82.8878 41.2973C82.8878 18.4808 64.3233 0 41.4439 0C18.5646 0 0 18.4808 0 41.2973C0 59.3987 11.6935 74.7904 27.9556 80.3545C28.9527 79.6499 30.0949 78.7647 30.0949 77.2834C30.0949 75.0072 30.0405 69.1721 30.0405 69.1721C30.0405 69.1721 28.2457 69.4792 25.6713 69.4792C19.1991 69.4792 17.1505 65.3964 16.1896 63.1021C14.9205 60.1213 13.2708 58.7123 11.5303 57.5922C10.4607 56.9057 10.2069 56.0928 11.4578 55.8579C17.1867 54.7921 18.6552 62.2892 22.4805 63.4996C25.2181 64.3486 28.717 63.9873 30.4575 62.8673C30.6932 60.573 32.3611 58.5858 33.7389 57.5561C24.0034 56.6347 18.2382 53.2746 15.2469 47.8911L14.9205 47.295L14.1772 45.5788L13.9597 44.9646C13.0169 42.2367 12.6 39.1114 12.6 35.6067C12.6 29.4103 14.5579 27.0618 17.1686 23.7559C15.1743 16.6743 17.8938 11.8508 17.8938 11.8508C17.8938 11.8508 22.0998 10.9837 30.0586 16.6381C34.3734 14.8136 45.8675 14.651 51.3245 16.2226C54.6603 14.0367 60.7699 10.9295 63.2355 11.7966C63.9063 12.8625 65.3385 15.9697 64.1057 22.7804C64.9397 24.2798 69.2907 27.4593 69.3089 36.4739C69.2364 39.7979 68.8919 42.598 68.2392 44.9646L67.8766 46.1749C67.8766 46.1749 67.6772 46.753 67.4415 47.295L67.1877 47.8911C64.3052 54.1779 58.3768 56.5264 48.8226 57.4838C51.9227 59.4168 52.8111 61.8376 52.8111 68.4133C52.8111 74.9891 52.7204 75.8562 52.7386 77.3737C52.7567 78.7105 53.8263 79.668 54.7872 80.3906C71.14 74.8626 82.8878 59.4529 82.8878 41.2973Z" fill="#292929"/>
</svg>
