<svg width="61" height="61" viewBox="0 0 61 61" fill="none" xmlns="http://www.w3.org/2000/svg">
<path d="M21.6055 49.1087L3.93762 44.1993L0 0H43.2624L39.3224 44.192L21.6055 49.1087Z" fill="#264DE4"/>
<path d="M35.948 41.3782L39.315 3.61279H21.63V45.3513L35.948 41.3782Z" fill="#2965F1"/>
<path d="M9.02612 20.0079L9.51098 25.4296H21.6299V20.0079H9.02612ZM8.05151 9.03467L8.54372 14.4563H21.6324V9.03467H8.05151ZM21.6299 34.0866L21.6055 34.0939L15.5741 32.464L15.1897 28.1379H9.75341L10.5125 36.6504L21.6079 39.7337L21.6324 39.7264V34.0866H21.6299Z" fill="#EBEBEB"/>
<path d="M34.2019 20.0079L35.179 9.03467H21.6128V14.4563H29.2432L28.751 20.0079H21.6128V25.4296H28.2808L27.6515 32.4591L21.6104 34.0915V39.7313L32.7131 36.6504L32.7939 35.7337L34.0672 21.4614L34.2019 20.0079Z" fill="white"/>
<path d="M21.6754 56.0668L17.7375 11.897H61L57.0621 56.0486L39.3325 60.9664L21.6754 56.0668Z" fill="#E44D26"/>
<path d="M39.3689 57.2101L53.6869 53.2359L57.0441 15.5083H39.3689V57.2101Z" fill="#F16529"/>
<path d="M39.369 31.8954H32.2009L31.7109 26.3424H39.369V20.9346H39.3508H25.7769L25.922 22.3863L27.2468 37.3032H39.369V31.8954Z" fill="#EBEBEB"/>
<path d="M39.3688 45.9595H39.3507L33.3077 44.3263L32.9266 40.0073H29.9868H27.4825L28.2447 48.5183L39.3325 51.6033L39.3688 51.5851V45.9595Z" fill="#EBEBEB"/>
<path d="M39.3508 31.8955V37.3033H46.0107L45.3937 44.3262L39.3508 45.9594V51.6031L50.4567 48.5182L50.5293 47.6108L51.7996 33.3473L51.9448 31.8955H50.4749H39.3508Z" fill="white"/>
<path d="M39.3508 20.9346V24.2918V26.3242V26.3424H52.4166H52.4347L52.5436 25.1265L52.7795 22.3863L52.9066 20.9346H39.3508Z" fill="white"/>
</svg>
