<svg width="81" height="77" viewBox="0 0 81 77" fill="none" xmlns="http://www.w3.org/2000/svg">
<path d="M55.7757 53.9512C58.7463 53.6439 60.9999 51.0829 60.8974 48.0097C60.795 44.9366 58.2341 42.478 55.161 42.478H54.9562C51.7807 42.5805 49.3222 45.2439 49.4247 48.4195C49.5271 49.9561 50.1417 51.2878 51.0636 52.2097C47.5808 59.0731 42.2542 64.0927 34.2642 68.2927C28.8352 71.1609 23.2012 72.1853 17.5673 71.4683C12.9577 70.8536 9.37245 68.8049 7.11887 65.4244C3.84094 60.4049 3.53363 54.9756 6.29939 49.5463C8.24566 45.6536 11.3187 42.7853 13.265 41.3512C12.8552 40.0195 12.2406 37.7658 11.9333 36.1268C-2.91979 46.8829 -1.38326 61.4292 3.12389 68.2927C6.50426 73.4146 13.3674 76.5902 20.9476 76.5902C22.9963 76.5902 25.0451 76.3853 27.0938 75.8732C40.2055 73.3122 50.1417 65.5268 55.7757 53.9512ZM73.8043 41.2487C66.0192 32.1317 54.5464 27.1122 41.4347 27.1122H39.7957C38.8738 25.2683 36.9276 24.039 34.7764 24.039H34.5715C31.396 24.1414 28.9376 26.8048 29.04 29.9805C29.1425 33.0536 31.7034 35.5122 34.7764 35.5122H34.9813C37.2349 35.4097 39.1811 33.9756 40.0006 32.0292H41.8444C49.6295 32.0292 57.0049 34.2829 63.6632 38.6878C68.7849 42.0683 72.4726 46.4731 74.5213 51.8C76.2627 56.1024 76.1603 60.3024 74.3164 63.8878C71.4483 69.317 66.6338 72.2878 60.2828 72.2878C56.1854 72.2878 52.2929 71.0585 50.2441 70.1366C49.1174 71.1609 47.0687 72.8 45.6346 73.8244C50.0393 75.8732 54.5464 77 58.8487 77C68.6825 77 75.9554 71.5707 78.7212 66.1414C81.6918 60.2 81.4869 49.9561 73.8043 41.2487ZM21.7671 55.6927C21.8696 58.7658 24.4304 61.2244 27.5035 61.2244H27.7084C30.8839 61.1219 33.3423 58.4585 33.2399 55.2829C33.1374 52.2097 30.5766 49.7512 27.5035 49.7512H27.2986C27.0938 49.7512 26.7865 49.7512 26.5816 49.8536C22.3817 42.8878 20.6403 35.3073 21.2549 27.1122C21.6647 20.9658 23.7134 15.639 27.2986 11.2341C30.2693 7.44386 36.0056 5.59996 39.8982 5.49752C50.7563 5.29264 55.3659 18.8146 55.6732 24.2439C57.0049 24.5512 59.2585 25.2683 60.795 25.7805C59.5658 9.18532 49.3222 0.580444 39.4884 0.580444C30.2693 0.580444 21.7671 7.23898 18.3868 17.0731C13.6747 30.1853 16.7478 42.7853 22.4842 52.7219C21.972 53.439 21.6647 54.5658 21.7671 55.6927Z" fill="#764ABC"/>
</svg>
