<svg width="65" height="90" viewBox="0 0 65 90" fill="none" xmlns="http://www.w3.org/2000/svg">
<path d="M0.0354309 72.0621L11.0286 1.71781C11.163 0.855096 11.834 0.175013 12.6948 0.028775C13.5556 -0.117463 14.4134 0.303261 14.825 1.07323L26.1939 22.278L30.7255 13.6498C31.0764 12.9827 31.7683 12.565 32.5222 12.565C33.2761 12.565 33.9679 12.9827 34.3189 13.6498L64.9994 72.062H0.0354309V72.0621Z" fill="#FFA000"/>
<path d="M38.0143 44.6604L26.1888 22.2679L0.0355988 72.0622L38.0143 44.6604Z" fill="#F57C00"/>
<path d="M65 72.0622L56.58 19.9586C56.4528 19.2104 55.9188 18.5958 55.1957 18.3641C54.4725 18.1324 53.6811 18.3252 53.1441 18.8617L0.0355988 72.0614L29.4219 88.5411C31.2672 89.5715 33.5146 89.5715 35.36 88.5411L65 72.0614V72.0622Z" fill="#FFCA28"/>
<path d="M56.5799 19.9586C56.4527 19.2104 55.9187 18.5957 55.1955 18.364C54.4724 18.1323 53.6809 18.3252 53.1439 18.8616L42.6031 29.4292L34.3143 13.6495C33.9634 12.9824 33.2715 12.5647 32.5176 12.5647C31.7637 12.5647 31.0719 12.9824 30.7209 13.6495L26.1893 22.2776L14.8199 1.07323C14.4076 0.303061 13.5488 -0.116982 12.6869 0.0303462C11.8251 0.177675 11.1564 0.859461 11.0235 1.72285L0.0354352 72.0621H0L0.0354352 72.1028L0.324709 72.2449L53.1286 19.38C53.6653 18.8406 54.4587 18.6468 55.1838 18.8778C55.9089 19.1088 56.4438 19.7258 56.5697 20.4762L64.9187 72.1128L64.9999 72.062L56.5799 19.9585L56.5799 19.9586ZM0.13186 71.9657L11.0287 2.22031C11.1614 1.35692 11.8317 0.67513 12.6927 0.527802C13.5538 0.380473 14.4127 0.80038 14.8257 1.57069L26.1939 22.7754L30.7255 14.1473C31.0764 13.4802 31.7683 13.0624 32.5222 13.0624C33.2761 13.0624 33.9679 13.4802 34.3189 14.1473L42.4395 29.5916L0.131383 71.9657H0.13186Z" fill="white" fill-opacity="0.2"/>
<path opacity="0.2" d="M35.3599 88.0445C33.5145 89.0748 31.2671 89.0748 29.4218 88.0445L0.106505 71.6106L0.0354309 72.0624L29.4217 88.537C31.267 89.5674 33.5145 89.5674 35.3598 88.537L64.9998 72.0624L64.9237 71.5955L35.3599 88.0447V88.0445Z" fill="#A52714"/>
<path d="M56.4958 19.9694C56.369 19.2214 55.8368 18.6065 55.1162 18.3762C54.3957 18.1458 53.607 18.3373 53.0718 18.8736L42.5672 29.4359L34.3081 13.6635C33.9583 12.9966 33.2689 12.579 32.5177 12.579C31.7666 12.579 31.0772 12.9966 30.7274 13.6635L26.211 22.2879L14.8819 1.09225C14.471 0.322423 13.6152 -0.0975523 12.7572 0.0498443C11.8991 0.197241 11.2311 0.878482 11.0989 1.74167L0.149063 72.0501L29.4326 88.5175C31.2715 89.5474 33.5111 89.5474 35.35 88.5175L64.8864 72.0501L56.4958 19.9692V19.9694Z" fill="url(#paint0_linear)"/>
<defs>
<linearGradient id="paint0_linear" x1="-2.11027" y1="15.2143" x2="78.6761" y2="57.8281" gradientUnits="userSpaceOnUse">
<stop stop-color="white" stop-opacity="0.1"/>
<stop offset="0.14" stop-color="white" stop-opacity="0.08"/>
<stop offset="0.61" stop-color="white" stop-opacity="0.02"/>
<stop offset="1" stop-color="white" stop-opacity="0"/>
</linearGradient>
</defs>
</svg>
