<svg width="79" height="70" viewBox="0 0 79 70" fill="none" xmlns="http://www.w3.org/2000/svg">
<path d="M64.1655 22.5144C63.3708 22.238 62.507 21.9616 61.6431 21.7197C61.7813 21.1323 61.9195 20.5794 62.0232 19.992C63.9236 10.7663 62.6797 3.30277 58.4296 0.884037C54.3524 -1.46559 47.6836 0.987691 40.9802 6.8272C40.3237 7.38005 39.7018 8.00202 39.0452 8.62398C38.5961 8.20934 38.1814 7.7947 37.7668 7.41461C30.7179 1.16046 23.6345 -1.50015 19.419 0.987693C15.3417 3.33732 14.1323 10.3516 15.86 19.0936C16.0327 19.9229 16.2055 20.7867 16.4474 21.6851C15.4453 21.9616 14.4779 22.2725 13.5449 22.5835C5.28668 25.4515 0 29.9779 0 34.6772C0 39.5147 5.66676 44.3521 14.2705 47.3237C14.9616 47.5656 15.6527 47.7729 16.3783 47.9802C16.1364 48.9132 15.9291 49.8461 15.7563 50.779C14.1323 59.3828 15.4108 66.2244 19.4535 68.5394C23.6345 70.9582 30.6833 68.4703 37.5249 62.4926C38.0777 62.0089 38.5961 61.5251 39.1489 61.0068C39.84 61.6979 40.5656 62.3198 41.2567 62.9418C47.8909 68.6431 54.456 70.9582 58.4988 68.6085C62.6797 66.1898 64.0619 58.8645 62.2651 49.9152C62.1269 49.2241 61.9887 48.5331 61.7813 47.842C62.2651 47.7038 62.7488 47.531 63.2326 47.3928C72.1819 44.4212 78.0214 39.6183 78.0214 34.7463C78.0214 29.9779 72.5965 25.4169 64.1655 22.5144Z" fill="#53C1DE"/>
<path d="M62.1959 44.179C61.7812 44.3172 61.3321 44.4554 60.8829 44.5936C59.8808 41.4492 58.5678 38.1321 56.9438 34.7113C58.4987 31.3597 59.7772 28.0771 60.7447 24.9673C61.5394 25.2092 62.3341 25.4511 63.0597 25.6929C70.2814 28.1808 74.7042 31.8434 74.7042 34.6768C74.7042 37.6829 69.9358 41.622 62.1959 44.179ZM59.017 50.5367C59.8117 54.4758 59.9154 58.0348 59.3971 60.8336C58.9479 63.356 57.9804 65.0146 56.8401 65.6711C54.3868 67.0878 49.1348 65.2565 43.4335 60.3499C42.7769 59.797 42.1204 59.2096 41.4639 58.5531C43.6753 56.1344 45.8522 53.3356 47.9945 50.2603C51.7608 49.9148 55.3198 49.3619 58.5678 48.6363C58.7405 49.2928 58.8788 49.9148 59.017 50.5367ZM26.5714 65.4292C24.1527 66.2931 22.2522 66.2931 21.112 65.6365C18.6587 64.2199 17.6221 58.7259 19.0388 51.366C19.2115 50.5368 19.3843 49.6729 19.5917 48.7745C22.8051 49.4656 26.3296 49.9839 30.1304 50.2949C32.3073 53.3356 34.5532 56.1344 36.8337 58.5877C36.35 59.0714 35.8317 59.5206 35.348 59.9698C32.2727 62.5958 29.2666 64.4963 26.5714 65.4292ZM15.307 44.1444C11.5062 42.8314 8.36182 41.1382 6.18496 39.3069C4.24997 37.6484 3.28247 35.9898 3.28247 34.6768C3.28247 31.8434 7.53255 28.2153 14.5814 25.7275C15.4453 25.4165 16.3436 25.1401 17.2766 24.8982C18.2441 28.0771 19.5225 31.3942 21.0774 34.7459C19.5225 38.1667 18.2095 41.5183 17.2075 44.7318C16.5855 44.559 15.929 44.3517 15.307 44.1444ZM19.0734 18.4713C17.6221 10.9732 18.5896 5.30646 21.0429 3.88977C23.6689 2.36942 29.4394 4.54628 35.5207 9.9366C35.9008 10.2821 36.3155 10.6277 36.6956 11.0078C34.415 13.4265 32.169 16.2253 30.0613 19.2315C26.3986 19.577 22.8742 20.1298 19.6262 20.8555C19.4189 20.0607 19.2461 19.2314 19.0734 18.4713ZM52.7628 26.7641C52.0027 25.4165 51.2079 24.138 50.3787 22.8595C52.8665 23.1705 55.2507 23.5852 57.4966 24.1035C56.8401 26.2458 55.9763 28.5263 55.0088 30.8414C54.3177 29.4938 53.5576 28.1462 52.7628 26.7641ZM39.0452 13.3919C40.6001 15.0505 42.1204 16.9164 43.6408 18.955C42.1204 18.8859 40.5655 18.8514 39.0106 18.8514C37.4557 18.8514 35.9353 18.8859 34.415 18.955C35.9008 16.9509 37.4557 15.085 39.0452 13.3919ZM25.2238 26.7986C24.4637 28.1462 23.7035 29.4938 23.0124 30.8414C22.0449 28.5263 21.2157 26.2803 20.5246 24.0689C22.736 23.5852 25.1202 23.1705 27.608 22.8595C26.7787 24.138 25.984 25.451 25.2238 26.7986ZM27.6771 46.7359C25.1202 46.4595 22.7015 46.0794 20.49 45.5956C21.1811 43.3842 22.0449 41.0691 23.0124 38.7195C23.7035 40.0671 24.4637 41.4147 25.2238 42.7623C26.0186 44.0753 26.8478 45.4229 27.6771 46.7359ZM39.1143 56.2035C37.5248 54.5104 35.9699 52.61 34.415 50.5713C35.9008 50.6404 37.4212 50.675 38.9761 50.675C40.5655 50.675 42.155 50.6404 43.6753 50.5713C42.1895 52.61 40.6692 54.5104 39.1143 56.2035ZM55.0434 38.5467C56.08 40.9309 56.9783 43.2114 57.6694 45.4229C55.3889 45.9412 52.9702 46.3558 50.3787 46.6668C51.1734 45.3883 52.0027 44.0407 52.7628 42.6931C53.5921 41.311 54.3177 39.9289 55.0434 38.5467ZM49.8949 41.0346C48.6855 43.1423 47.4071 45.181 46.1631 47.0814C43.8481 47.2542 41.4639 47.3233 39.0106 47.3233C36.5919 47.3233 34.2077 47.2542 31.9272 47.116C30.6142 45.181 29.3357 43.1423 28.1263 41.0692C26.917 38.996 25.8113 36.8882 24.8092 34.7804C25.8113 32.6727 26.917 30.5649 28.1263 28.4917C29.3357 26.384 30.6142 24.3799 31.9272 22.4795C34.2423 22.3067 36.6264 22.203 39.0452 22.203C41.4639 22.203 43.8481 22.3067 46.1631 22.4795C47.4416 24.3799 48.7201 26.384 49.9295 28.4917C51.1388 30.5995 52.2791 32.7072 53.2812 34.7459C52.2445 36.7845 51.1043 38.9268 49.8949 41.0346ZM56.771 3.78611C59.3971 5.30646 60.3991 11.3878 58.7751 19.3351C58.6714 19.8534 58.5678 20.3717 58.4296 20.89C55.1815 20.1298 51.6571 19.577 47.9945 19.2315C45.8522 16.1908 43.6408 13.3919 41.3948 11.0078C41.9822 10.4203 42.6041 9.8675 43.1916 9.3492C48.9274 4.33897 54.3177 2.36943 56.771 3.78611Z" fill="white"/>
<path d="M39.0108 27.6973C42.8462 27.6973 45.9905 30.8071 45.9905 34.677C45.9905 38.5125 42.8807 41.6568 39.0108 41.6568C35.1408 41.6568 32.031 38.547 32.031 34.677C32.031 30.8416 35.1408 27.6973 39.0108 27.6973Z" fill="#53C1DE"/>
</svg>
