<svg width="62" height="62" viewBox="0 0 62 62" fill="none" xmlns="http://www.w3.org/2000/svg">
<path d="M0 31V62H31H62V31V0H31H0V31Z" fill="#007ACC"/>
<path d="M13.7105 31.2056L13.6908 33.7446H17.7258H21.7607L21.7607 45.2097V56.6748H24.6146H27.4686V45.2097L27.4686 33.7446H31.5035H35.5385V31.2548C35.5385 29.877 35.5089 28.7256 35.4696 28.6961C35.44 28.6567 30.5292 28.637 24.5753 28.6469L13.74 28.6764L13.7105 31.2056Z" fill="white"/>
<path d="M50.0278 28.6046C51.6024 28.9982 52.8031 29.6969 53.9053 30.8385C54.4761 31.4487 55.3224 32.5607 55.3913 32.8265C55.411 32.9052 52.7145 34.716 51.0809 35.7296C51.0218 35.769 50.7856 35.5131 50.5199 35.1195C49.7228 33.9582 48.8863 33.4563 47.6069 33.3677C45.7272 33.2398 44.5167 34.2239 44.5266 35.8674C44.5266 36.3496 44.5955 36.635 44.7923 37.0287C45.2056 37.8849 45.9732 38.3966 48.3843 39.4398C52.8228 41.349 54.7221 42.6087 55.9031 44.3998C57.2218 46.3976 57.517 49.5861 56.6215 51.9579C55.6374 54.5363 53.1967 56.288 49.7621 56.8687C48.6993 57.0557 46.1799 57.0261 45.0383 56.8195C42.5485 56.3766 40.1866 55.1465 38.7301 53.5325C38.1593 52.9026 37.0472 51.2592 37.1161 51.1411C37.1456 51.1017 37.4015 50.9442 37.6869 50.7769C37.9624 50.6195 39.0056 50.0192 39.9897 49.4484L41.771 48.415L42.145 48.9661C42.6666 49.7633 43.8082 50.8557 44.497 51.2198C46.4751 52.263 49.1913 52.1153 50.5297 50.9147C51.1005 50.3931 51.3367 49.8519 51.3367 49.0547C51.3367 48.3363 51.2482 48.0214 50.8742 47.4801C50.392 46.7912 49.4078 46.2106 46.6129 45.0001C43.4145 43.6223 42.0367 42.7661 40.777 41.408C40.0488 40.6207 39.3599 39.3611 39.0745 38.308C38.8383 37.4322 38.7793 35.2376 38.9663 34.3519C39.6256 31.2617 41.958 29.1065 45.3237 28.4668C46.4161 28.2601 48.9551 28.3388 50.0278 28.6046Z" fill="white"/>
</svg>
